<?xml version="1.0" encoding="UTF-8" standalone="no"?>
<svg
   version="1.1"
   viewBox="-10 0 421 1000"
   id="svg4"
   sodipodi:docname="H1.svg"
   inkscape:version="1.1.1 (3bf5ae0d25, 2021-09-20)"
   xmlns:inkscape="http://www.inkscape.org/namespaces/inkscape"
   xmlns:sodipodi="http://sodipodi.sourceforge.net/DTD/sodipodi-0.dtd"
   xmlns="http://www.w3.org/2000/svg"
   xmlns:svg="http://www.w3.org/2000/svg">
  <defs
     id="defs8" />
  <sodipodi:namedview
     id="namedview6"
     pagecolor="#ffffff"
     bordercolor="#666666"
     borderopacity="1.0"
     inkscape:pageshadow="2"
     inkscape:pageopacity="0.0"
     inkscape:pagecheckerboard="0"
     showgrid="false"
     inkscape:zoom="1.5914067"
     inkscape:cx="42.415304"
     inkscape:cy="364.45743"
     inkscape:window-width="1920"
     inkscape:window-height="974"
     inkscape:window-x="-11"
     inkscape:window-y="-11"
     inkscape:window-maximized="1"
     inkscape:current-layer="svg4" />
  <path
     fill="currentColor"
     d="M 142.28304,424.59512 C 93.340724,435.51378 92.888754,485.77058 89.29685,542.888 c 3.31152,63.9492 6.02637,127.952 9.93359,191.847 1.08594,17.9131 8.03418,35.7197 7.49219,53.417 -0.37988,11.9961 0.94481,35.24529 -14.168,35.10442 -18.035217,-2.27807 -22.5293,-19.41592 -23.7236,-30.27232 -5.32031,-48.207 -6.18848,-96.8467 -9.93457,-145.271 -8.83105,-114.361 -18.2217,-228.687 -28.1738,-342.976 -6.84082,-79.1494 -15.4727,-157.7 -22.1484,-236.578 -1.30273,-15.4707 -11.292,-39.791 13.5713,-42.6143 26.1113,-2.93164 19.7051,24.1582 21.334,38.543 11.1826,96.9004 14.701026,153.17363 24.798726,250.18063 4.12598,39.6289 42.014544,80.89137 81.424714,75.78887 64.4385,-8.30762 49.31977,-6.89003 113.05177,-19.37543 5.97168,-1.08691 67.31801,-15.1838 61.66264,-92.49458 0.10742,-102.166 -2.39835,-149.66339 -2.99405,-251.77439 -0.0557,-7.00293 0.27148,-15.6885 4.17871,-20.5732 3.84473,-4.09375 9.28125,-6.64453 15.334,-6.64453 1.0791,0 2.14062,0.0810547 3.17773,0.239258 6.91602,3.00781 12.2275,8.96387 14.3857,16.2852 2.12988,15.9443 3.21582,31.7842 3.21582,48.3076 0,0.981445 -0.004,1.95898 -0.0137,2.93652 2.39062,130.938002 3.04199,261.983002 7.81738,392.866002 3.63867,99.0723 12.2705,197.98 19.6533,296.89 1.0293,14.0586 5.9146,17.40289 10.8564,41.6367 0.97754,9.22949 6.64598,21.6373 -5.42969,28.7168 -12.54605,4.01784 -22.1484,-5.37305 -26.7627,-12.3223 -8.33691,-12.2607 -13.916,-26.7754 -15.6885,-42.2334 -9.22754,-115.086 -15.57578,-185.64838 -22.81408,-300.91438 1.15705,-47.92052 -42.84329,-77.88539 -95.34846,-64.0316 -70.083,12.3242 -52.30122,7.92761 -91.70223,17.02355 z"
     id="path2"
     sodipodi:nodetypes="cccccccccccccccccsccsccccccccccc" />
</svg>
