<?xml version="1.0" standalone="no"?>
<!DOCTYPE svg PUBLIC "-//W3C//DTD SVG 1.1//EN" "http://www.w3.org/Graphics/SVG/1.1/DTD/svg11.dtd" >
<svg xmlns="http://www.w3.org/2000/svg" xmlns:xlink="http://www.w3.org/1999/xlink" version="1.1" viewBox="-11 0 362 1000">
   <path fill="currentColor"
d="M-0.987305 458.946c6.09082 -126.635 16.0586 -254.154 67.6084 -374.2c8.22168 -19.6064 19.4658 -37.5762 33.2227 -53.3789c14.9971 -16.6484 32.6016 -25.1309 49.8438 -25.1309c18.0254 0 35.6543 9.27148 49.4941 28.1758
c13.1465 17.9355 31.3027 53.2471 31.3027 77.627c0 7.85254 -9.88965 18.5117 -14.582 27.7461c-7.47363 -7.58594 -17.1094 -13.9531 -22.1465 -22.9248c-8.64062 -16.1113 -12.459 -34.9385 -21.7627 -50.5527c-7.33398 -12.3877 -15.8564 -18.7969 -24.416 -18.7969
c-7.85352 0 -15.7383 5.39746 -22.7607 16.5264c-15.5029 24.4043 -27.9062 51.4258 -36.3232 79.7344c-28.0332 95.3564 -45.6572 192.447 -45.6572 291.407c0 18.3232 0.604492 36.7109 1.8584 55.1631c4.76172 69.9336 14.8945 139.37 44.2969 204.321
c3.25 7.59961 6.97461 15.0439 11.0742 22.1465c15.1426 25.4199 27.8809 38.0195 44.7666 38.0195c10.5918 0 22.8164 -4.95703 38.29 -14.8184c39.2588 -25.0273 75.0303 -55.7588 111.131 -85.4385c8.35547 -6.86035 15.9678 -15.0732 24.7646 -15.0732
c3.91309 0 8.06055 1.625 12.6123 5.71582c6.00195 5.39648 8.49902 11.1572 8.49902 16.7354c0 8.15918 -5.34277 15.9258 -12.875 21.582c-48.2832 36.4893 -95.626 74.9727 -147.343 105.98c-11.2334 6.71387 -23.0732 9.80078 -34.8535 9.80078
c-28.3428 0 -56.3428 -17.8672 -74.7266 -46.0684c-36.7646 -56.3135 -49.834 -120.488 -60.4639 -185.162c-5.42773 -35.3828 -7.14551 -71.4297 -10.8545 -109.137z" />
</svg>
