<?xml version="1.0" encoding="UTF-8" standalone="no"?>
<svg
   viewBox="0 0 350 350"
   version="1.1"
   id="svg16"
   sodipodi:docname="C.svg"
   inkscape:version="1.1.1 (3bf5ae0d25, 2021-09-20)"
   xmlns:inkscape="http://www.inkscape.org/namespaces/inkscape"
   xmlns:sodipodi="http://sodipodi.sourceforge.net/DTD/sodipodi-0.dtd"
   xmlns="http://www.w3.org/2000/svg"
   xmlns:svg="http://www.w3.org/2000/svg">
  <sodipodi:namedview
     id="namedview18"
     pagecolor="#ffffff"
     bordercolor="#666666"
     borderopacity="1.0"
     inkscape:pageshadow="2"
     inkscape:pageopacity="0.0"
     inkscape:pagecheckerboard="0"
     showgrid="false"
     inkscape:zoom="2.8284271"
     inkscape:cx="246.60349"
     inkscape:cy="193.74726"
     inkscape:window-width="1920"
     inkscape:window-height="974"
     inkscape:window-x="-11"
     inkscape:window-y="-11"
     inkscape:window-maximized="1"
     inkscape:current-layer="svg16" />
  <defs
     id="defs11">
    <style
       id="style9">.cls-1{fill:#231f20;}</style>
  </defs>
  <g
     id="C">
    <path
       class="cls-1"
       d="m 151.4,194.56 c 1.1,-22.87 2.9,-45.9 12.21,-67.58 1.47306,-3.51277 3.49866,-6.76724 6,-9.64 5.54,-6.15 13.05,-6.13 17.94,0.55 2.83,3.86 4.27,8.9 5.6,13.62 0.41,1.44 -0.72192,4.99421 -2.58,5.41 -1.57097,0.48616 -3.09,-2.52 -4,-4.14 -1.56,-2.91 -2.25,-6.31 -3.93,-9.13 -2.54,-4.29 -5.87,-4.61 -8.52,-0.41 -2.84188,4.47364 -5.04958,9.3198 -6.56,14.4 -6,20.41 -9.36,41.26 -7.91,62.59 0.86,12.63 2.69,25.17 8,36.9 0.58639,1.37198 1.25425,2.7077 2,4 4.45,7.47 7.75,8.81 15,4.19 7.09,-4.52 13.55,-10.07 20.07,-15.43 2.18,-1.79 4.08,-4.09 6.75,-1.69 2.67,2.4 1.5,5.2 -0.79,6.92 -8.72,6.59 -17.27,13.54 -26.61,19.14 -6.91,4.13 -15.09,0.66 -19.79,-6.55 -6.64,-10.17 -9,-21.76 -10.92,-33.44 -0.98,-6.39 -1.29,-12.9 -1.96,-19.71 z"
       sodipodi:nodetypes="cccccccccccccccsccccc"
    >
        <animate 
            id="C0"
            attributeName="d" 
            dur="2s" 
            from="m 151.4,194.56 c 1.1,-22.87 2.9,-45.9 12.21,-67.58 1.47306,-3.51277 3.49866,-6.76724 6,-9.64 5.54,-6.15 13.05,-6.13 17.94,0.55 2.83,3.86 4.27,8.9 5.6,13.62 0.41,1.44 -0.72192,4.99421 -2.58,5.41 -1.57097,0.48616 -3.09,-2.52 -4,-4.14 -1.56,-2.91 -2.25,-6.31 -3.93,-9.13 -2.54,-4.29 -5.87,-4.61 -8.52,-0.41 -2.84188,4.47364 -5.04958,9.3198 -6.56,14.4 -6,20.41 -9.36,41.26 -7.91,62.59 0.86,12.63 2.69,25.17 8,36.9 0.58639,1.37198 1.25425,2.7077 2,4 4.45,7.47 7.75,8.81 15,4.19 7.09,-4.52 13.55,-10.07 20.07,-15.43 2.18,-1.79 4.08,-4.09 6.75,-1.69 2.67,2.4 1.5,5.2 -0.79,6.92 -8.72,6.59 -17.27,13.54 -26.61,19.14 -6.91,4.13 -15.09,0.66 -19.79,-6.55 -6.64,-10.17 -9,-21.76 -10.92,-33.44 -0.98,-6.39 -1.29,-12.9 -1.96,-19.71 z"
            to="m 151.4,194.57072 c -0.9,-18.37 2.9,-45.91072 12.21,-67.59072 1.47306,-3.51277 3.49866,-6.76724 6,-9.64 5.54,-6.15 13.05,-6.13 17.94,0.55 2.83,3.86 4.27,8.9 5.6,13.62 0.41,1.44 -0.72192,4.99421 -2.58,5.41 -1.57097,0.48616 -4.4025,-0.5825 -5.3125,-2.2025 -2.685,-3.5975 -2.25,-2.8725 -4.43,-5.88 -2.54,-4.29 -5.12,-2.36 -5.9575,-0.5975 -2.52938,4.09864 -2.92458,5.6948 -5.4975,10.9 -7.3125,17.2225 -11.1725,39.76 -9.7225,61.09 0.86,12.63 3.065,24.045 8.375,35.775 1.21139,2.18448 1.26811,2.30551 2.95581,4.03217 3.79543,1.96112 6.54419,2.71533 12.73169,1.53283 8.715,-2.145 14.4875,-6.32 21.0075,-11.68 2.18,-1.79 4.08,-4.09 6.75,-1.69 2.67,2.4 1.5,5.2 -0.79,6.92 -8.72,6.59 -17.27,13.54 -26.61,19.14 -6.91,4.13 -15.09,0.66 -19.79,-6.55 -6.64,-10.17 -9,-21.76 -10.92,-33.44 -0.98,-6.39 -1.7275,-12.95178 -1.96,-19.69928 z" 
            begin="0; C1.end"
        />
    </path>


    <path
       class="cls-1"
       d="m 151.4,194.56 c 1.1,-22.87 2.9,-45.9 12.21,-67.58 1.47306,-3.51277 3.49866,-6.76724 6,-9.64 5.54,-6.15 13.05,-6.13 17.94,0.55 2.83,3.86 4.27,8.9 5.6,13.62 0.41,1.44 -0.72192,4.99421 -2.58,5.41 -1.57097,0.48616 -3.09,-2.52 -4,-4.14 -1.56,-2.91 -2.25,-6.31 -3.93,-9.13 -2.54,-4.29 -5.87,-4.61 -8.52,-0.41 -2.84188,4.47364 -5.04958,9.3198 -6.56,14.4 -6,20.41 -9.36,41.26 -7.91,62.59 0.86,12.63 2.69,25.17 8,36.9 0.58639,1.37198 1.25425,2.7077 2,4 4.45,7.47 7.75,8.81 15,4.19 7.09,-4.52 13.55,-10.07 20.07,-15.43 2.18,-1.79 4.08,-4.09 6.75,-1.69 2.67,2.4 1.5,5.2 -0.79,6.92 -8.72,6.59 -17.27,13.54 -26.61,19.14 -6.91,4.13 -15.09,0.66 -19.79,-6.55 -6.64,-10.17 -9,-21.76 -10.92,-33.44 -0.98,-6.39 -1.29,-12.9 -1.96,-19.71 z"
       sodipodi:nodetypes="cccccccccccccccsccccc"
    >
        <animate 
            id="C1"
            attributeName="d" 
            dur="2s" 
            from="m 151.4,194.57072 c -0.9,-18.37 2.9,-45.91072 12.21,-67.59072 1.47306,-3.51277 3.49866,-6.76724 6,-9.64 5.54,-6.15 13.05,-6.13 17.94,0.55 2.83,3.86 4.27,8.9 5.6,13.62 0.41,1.44 -0.72192,4.99421 -2.58,5.41 -1.57097,0.48616 -4.4025,-0.5825 -5.3125,-2.2025 -2.685,-3.5975 -2.25,-2.8725 -4.43,-5.88 -2.54,-4.29 -5.12,-2.36 -5.9575,-0.5975 -2.52938,4.09864 -2.92458,5.6948 -5.4975,10.9 -7.3125,17.2225 -11.1725,39.76 -9.7225,61.09 0.86,12.63 3.065,24.045 8.375,35.775 1.21139,2.18448 1.26811,2.30551 2.95581,4.03217 3.79543,1.96112 6.54419,2.71533 12.73169,1.53283 8.715,-2.145 14.4875,-6.32 21.0075,-11.68 2.18,-1.79 4.08,-4.09 6.75,-1.69 2.67,2.4 1.5,5.2 -0.79,6.92 -8.72,6.59 -17.27,13.54 -26.61,19.14 -6.91,4.13 -15.09,0.66 -19.79,-6.55 -6.64,-10.17 -9,-21.76 -10.92,-33.44 -0.98,-6.39 -1.7275,-12.95178 -1.96,-19.69928 z"
            to="m 151.4,194.56 c 1.1,-22.87 2.9,-45.9 12.21,-67.58 1.47306,-3.51277 3.49866,-6.76724 6,-9.64 5.54,-6.15 13.05,-6.13 17.94,0.55 2.83,3.86 4.27,8.9 5.6,13.62 0.41,1.44 -0.72192,4.99421 -2.58,5.41 -1.57097,0.48616 -3.09,-2.52 -4,-4.14 -1.56,-2.91 -2.25,-6.31 -3.93,-9.13 -2.54,-4.29 -5.87,-4.61 -8.52,-0.41 -2.84188,4.47364 -5.04958,9.3198 -6.56,14.4 -6,20.41 -9.36,41.26 -7.91,62.59 0.86,12.63 2.69,25.17 8,36.9 0.58639,1.37198 1.25425,2.7077 2,4 4.45,7.47 7.75,8.81 15,4.19 7.09,-4.52 13.55,-10.07 20.07,-15.43 2.18,-1.79 4.08,-4.09 6.75,-1.69 2.67,2.4 1.5,5.2 -0.79,6.92 -8.72,6.59 -17.27,13.54 -26.61,19.14 -6.91,4.13 -15.09,0.66 -19.79,-6.55 -6.64,-10.17 -9,-21.76 -10.92,-33.44 -0.98,-6.39 -1.29,-12.9 -1.96,-19.71 z"
            begin="C0.end"
        />
    </path>
    </g>
</svg>