<?xml version="1.0" encoding="UTF-8" standalone="no"?>
<svg
   version="1.1"
   viewBox="-11 0 362 1000"
   id="svg2128"
   sodipodi:docname="C1-small.svg"
   inkscape:version="1.1.1 (3bf5ae0d25, 2021-09-20)"
   xmlns:inkscape="http://www.inkscape.org/namespaces/inkscape"
   xmlns:sodipodi="http://sodipodi.sourceforge.net/DTD/sodipodi-0.dtd"
   xmlns="http://www.w3.org/2000/svg"
   xmlns:svg="http://www.w3.org/2000/svg">
  <defs
     id="defs2132" />
  <sodipodi:namedview
     id="namedview2130"
     pagecolor="#ffffff"
     bordercolor="#666666"
     borderopacity="1.0"
     inkscape:pageshadow="2"
     inkscape:pageopacity="0.0"
     inkscape:pagecheckerboard="0"
     showgrid="false"
     inkscape:zoom="2.0058202"
     inkscape:cx="349.23369"
     inkscape:cy="619.19806"
     inkscape:window-width="1920"
     inkscape:window-height="974"
     inkscape:window-x="-11"
     inkscape:window-y="-11"
     inkscape:window-maximized="1"
     inkscape:current-layer="svg2128" />
  <path
     fill="currentColor"
     d="M 0.00979332,437.00984 C -0.3805258,302.39805 15.071295,204.792 66.621095,84.746 74.842775,65.1396 86.086895,47.1698 99.843795,31.3671 114.8409,14.7187 132.44539,6.2362 149.68759,6.2362 c 18.0254,0 35.6543,9.27148 49.4941,28.1758 13.1465,17.9355 31.3027,53.2471 31.3027,77.627 0,7.85254 -2.16213,20.75517 -14.58199,22.76061 -11.21275,2.13577 -24.08909,-7.97051 -29.1262,-16.94221 -8.64062,-16.1113 -8.96915,-15.99363 -18.27284,-31.607834 -7.33398,-12.3877 -18.84771,-10.820113 -27.4073,-10.820113 -7.85352,0 -20.22525,3.403263 -27.24764,14.532203 C 98.345518,114.36596 96.910295,115.4629 88.493295,143.7715 c -28.0332,95.3564 -45.6572,192.447 -45.6572,291.407 0,18.3232 -2.386803,29.73121 -1.132895,48.18341 4.76172,69.9336 -0.06198,100.48317 29.340425,165.43417 11.585758,20.06334 7.778699,25.01488 26.529231,36.60442 19.564054,15.80824 28.813504,14.44381 45.265154,17.08044 27.57888,4.41994 45.86651,1.49565 70.19713,-6.34306 47.73414,-12.56358 45.11735,-11.88648 81.21805,-41.56618 8.35548,-6.86035 15.96781,-15.0732 24.7646,-15.0732 3.91309,0 8.06055,1.625 12.6123,5.71582 6.00195,5.39648 8.49902,11.1572 8.49902,16.7354 0,8.15918 -5.34277,15.9258 -12.875,21.582 -48.2832,36.4893 -95.626,74.9727 -147.343,105.98 -11.2334,6.71387 -23.0732,9.80078 -34.8535,9.80078 -28.3428,0 -56.342795,-17.8672 -74.726595,-46.0684 C 33.566415,696.9306 18.502818,641.72998 7.8729184,577.05598 2.4451884,547.29737 0.72740832,512.24854 0.00971332,481.37981 Z"
     id="path2126"
     sodipodi:nodetypes="cccscscccsccscccsccscsccscccc" />
</svg>
